<svg width="5.764023" height="7.000000" viewBox="0 0 5.76402 7" fill="none" xmlns="http://www.w3.org/2000/svg" xmlns:xlink="http://www.w3.org/1999/xlink">
	<desc>
			Created with Pixso.
	</desc>
	<defs/>
	<path id="map-icon" d="M2.75438 6.97159L2.75562 6.97198C2.83672 7.00742 2.88201 6.99918 2.88201 6.99918C2.88201 6.99918 2.9273 7.00742 3.00882 6.97198L3.00964 6.97159L3.01211 6.97034L3.01952 6.96707C3.05861 6.94891 3.09718 6.92969 3.13522 6.90942C3.2118 6.8699 3.31884 6.81061 3.44688 6.73114C3.70215 6.57306 4.04181 6.33344 4.38313 6.00446C5.06493 5.34735 5.76402 4.32013 5.76402 2.88202C5.76402 2.50354 5.68948 2.12878 5.54464 1.77911C5.39981 1.42944 5.18752 1.11176 4.9199 0.844116C4.65228 0.576508 4.33457 0.364227 3.98491 0.219391C3.63525 0.0745544 3.26048 0 2.88201 0C2.50354 0 2.12878 0.0745544 1.77911 0.219391C1.42945 0.364227 1.11174 0.576508 0.84412 0.844116C0.576504 1.11176 0.364216 1.42944 0.219379 1.77911C0.0745468 2.12878 0 2.50354 0 2.88202C0 4.31973 0.699093 5.34735 1.38131 6.00446C1.66693 6.27881 1.9806 6.52237 2.31714 6.73114C2.44748 6.81207 2.58158 6.88681 2.71897 6.95511L2.7445 6.96707L2.75191 6.97034L2.75438 6.97159ZM2.88201 3.80838C3.1277 3.80838 3.36332 3.71078 3.53705 3.53705C3.71077 3.36331 3.80837 3.12769 3.80837 2.88202C3.80837 2.63632 3.71077 2.4007 3.53705 2.22699C3.36332 2.05325 3.1277 1.95566 2.88201 1.95566C2.63633 1.95566 2.4007 2.05325 2.22697 2.22699C2.05325 2.4007 1.95565 2.63632 1.95565 2.88202C1.95565 3.12769 2.05325 3.36331 2.22697 3.53705C2.4007 3.71078 2.63633 3.80838 2.88201 3.80838Z" fill="#334155" fill-opacity="1.000000" fill-rule="evenodd"/>
</svg>
